<svg xmlns="http://www.w3.org/2000/svg" width="163" height="36" viewBox="0 0 163 36"><g transform="translate(-123 -41)"><text transform="translate(165 67)" fill="#121212" font-size="24" font-family="Poppins-Medium, Poppins" font-weight="500"><tspan x="0" y="0">Movie</tspan><tspan y="0" fill="#5bc492">App</tspan></text><g transform="translate(123 41)"><path d="M0,2.25A2.25,2.25,0,0,1,2.25,0h31.5A2.25,2.25,0,0,1,36,2.25v31.5A2.25,2.25,0,0,1,33.75,36H2.25A2.25,2.25,0,0,1,0,33.75Zm9,0H27v13.5H9Zm18,18H9v13.5H27ZM2.25,2.25h4.5v4.5H2.25ZM6.75,9H2.25v4.5h4.5Zm-4.5,6.75h4.5v4.5H2.25Zm4.5,6.75H2.25V27h4.5Zm-4.5,6.75h4.5v4.5H2.25Zm31.5-27h-4.5v4.5h4.5ZM29.25,9h4.5v4.5h-4.5Zm4.5,6.75h-4.5v4.5h4.5Zm-4.5,6.75h4.5V27h-4.5Zm4.5,6.75h-4.5v4.5h4.5Z" fill="#5bc492" fill-rule="evenodd"/></g></g></svg>